<svg version="1" xmlns="http://www.w3.org/2000/svg" width="1800" height="1800" viewBox="0 0 1350.000000 1350.000000"><path d="M321.6 282.1c-2.3 3.4-.2 11.7 4.3 16.6 2.1 2.4 4 3.3 7.7 3.8 5.5.8 14.2 5 19.4 9.5 1.9 1.6 7.3 4.9 12 7.2 4.7 2.4 8.7 4.6 8.8 5 .2.5 1 .8 1.8.8.7 0 2.3.8 3.3 1.7 1.1.9 2.8 1.8 3.8 2 1 .2 2.9.7 4.3 1 1.4.3 5.1.8 8.3 1 4.5.4 5.7.8 5.7 2.2 0 2.2 4.9 12.1 6 12.1.8 0 8.9 10.7 11.5 15.1 7.7 13.2 11.6 20.8 13.1 25.1.9 2.9 1.7 5.4 1.6 5.5-.1.2.6 2.2 1.4 4.5.9 2.4 1.7 5.2 2 6.4.2 1.2 1 4 1.8 6.3.9 2.2 1.3 4.1.9 4.1-.3 0-.1.6.4 1.2.6.7 1.6 3.5 2.2 6.3.7 2.7 1.7 5.9 2.2 7 .6 1.5 6 19.6 8.3 28 .1.5.9 3 1.6 5.5.8 2.5 1.4 4.8 1.6 5.2.1.5.3 1 .4 1.3.6 1.2.6 3.1-.1 4-.4.6.8 6.2 2.7 12.5 2 6.3 4.8 15.8 6.4 21 1.5 5.2 4.9 16.2 7.4 24.5 2.6 8.2 4.9 16 5.1 17.2.3 1.2 1 3.4 1.5 4.8.6 1.5 1 2.9 1 3.2 0 .3-7.3 7.8-16.1 16.5-16 15.7-16.2 15.9-18.3 14.1-1.1-1-2.3-2-2.6-2.3-.3-.3-2.5-2.1-5-4s-5.1-4.1-5.9-4.8c-4.6-4.4-30.9-20.5-43.6-26.7-17.7-8.7-40-17-53.6-20.1-10.1-2.2-20.3-4.2-26.4-5-2.2-.3-5.6-.7-7.5-1-18.5-2.9-55.8-1.8-74.9 2-1.2.3-4.3.8-6.8 1.1-2.4.2-4.9.8-5.4 1.1-.6.3-2.5.8-4.2 1.1-1.8.2-7.7 1.8-13.2 3.4-5.5 1.7-10.4 3.2-11 3.3-.5.2-1.9.6-3 1.1-16.3 6.3-21.1 8.3-27.5 11.4-4.1 2-7.7 3.9-7.8 4.4-.2.4-.7.5-1.2.2-.4-.3-1.3.2-2 1s-2.1 1.5-3.1 1.5c-1.1 0-1.9.4-1.9.8 0 .5-1.2 1.5-2.7 2.3-1.6.7-4.7 2.6-7 4.1-2.3 1.5-4.4 2.8-4.8 2.8-.3 0-1.1.4-1.8 1-.7.5-5.9 4.5-11.7 8.8-34.9 26-62.5 59.3-81.7 98.2-5.2 10.6-10.4 23-10.4 25-.1.3-.4.9-.9 1.5-.6.9-6.5 18.9-7.6 23.5-.2.8-1 4.2-1.8 7.6-2 7.9-2.6 11-3.2 15.9-.3 2.1-.7 4.2-.9 4.5-.2.4-.7 3.5-1 7.1-.4 3.5-.9 7.5-1.2 8.9-.8 3.4-1.2 52.3-.5 53.5.4.5.7 2.3.8 4 .3 5.4 1.4 12.6 3.4 23 .6 2.7 1.2 5.9 1.4 7.1 6 31.3 24.1 72.1 44.9 100.9 13.4 18.7 33.9 40.4 49.7 52.9 4.7 3.7 9.3 7.4 10.3 8.2.9.8 2.1 1.4 2.6 1.4s1.1.4 1.3.8c.3.8 15.3 11.2 16.2 11.2.2 0 3.3 1.7 6.7 3.8 6.2 3.7 13.6 7.4 25.1 12.6 3.1 1.4 5.9 2.6 6.1 2.6.3 0 2.2.8 4.3 1.7 2.2.9 4.1 1.7 4.4 1.8.3.1 4.3 1.4 9 2.9s9.2 2.9 10 3.1c.8.2 4 1 7 1.9 32 8.5 72.7 10.3 108.6 4.6 18.1-2.9 40.1-9.2 58.4-16.7 10.1-4.2 32.4-15.3 32.8-16.5.2-.4 1-.8 1.8-.8s1.4-.5 1.4-1c0-.6.9-1 1.9-1 1.1 0 2.1-.4 2.3-.8.2-.4 4.3-3.4 9.1-6.7 4.9-3.2 9.9-6.9 11.3-8.2 1.4-1.3 2.9-2.3 3.4-2.3.4 0 1-.3 1.2-.8.2-.4 3-3 6.3-5.7 9.4-7.9 29.5-28.4 35.3-36 8.3-10.9 13.7-18.4 14.5-20.2.6-1.3 1.4-2.3 1.9-2.3.4 0 .8-.7.8-1.5s.5-1.5 1-1.5c.6 0 1-.6 1-1.4 0-3.4 2.7-3.9 21.8-3.6 40.6.6 75.9.5 79.9-.2 2.2-.4 5.4-1 7-1.4 4.5-1.1 17.6-6.6 19.6-8.2.9-.8 1.7-1.2 1.7-.8 0 .4 1.4-.4 3.1-1.8 1.7-1.4 3.4-2.6 3.7-2.6 1.2 0 13.7-12.3 17.3-16.9 6-7.9 11-17.9 13.6-27.4 1.5-5.3 1.8-5.7 4.7-5.8 1.7 0 7.4-.2 12.6-.5 5.2-.2 14.6-.5 20.8-.8l11.2-.4.1 3.1c.2 12.3 1.7 15.9 7.7 18.4 7 2.9 15.2-1 16.8-8.1.9-4 .9-50 0-54.6-.9-4.6-3.4-7.4-7.9-9.1-3.2-1.1-4.4-1.1-7.9.1-5.5 2-7.8 5.3-8.5 12.4l-.6 5.8-3.3-.4c-1.9-.2-3.4-.1-3.4.3s-.8.5-1.7.3c-3-.8-22.3-.9-22.3-.2 0 .3-.8.4-1.7.2-1-.3-4.7-.6-8.2-.7l-6.4-.2-1.4-5c-1.4-5.1-1.6-5.6-5.2-13.7-1.2-2.6-2.1-5.3-2.1-5.9 0-.7 2.4-3.7 5.4-6.8 10.9-11.4 15.3-16.1 25.6-27.1 5.8-6.3 12.1-13 14-15 4.6-4.8 26.1-27.6 29.6-31.5 1.5-1.7 8.6-9.3 15.8-16.9 14.3-15.2 14-14.9 30.6-32.6 6.3-6.8 13.1-14 15-16 1.9-2.1 8.5-9 14.5-15.5 6.1-6.5 12.8-13.7 15-16 4.1-4.4 24.9-26.5 32-34 2.2-2.3 8.7-9.3 14.5-15.5 5.8-6.2 12.3-13.2 14.5-15.5 9.4-9.9 27.3-29.1 31.5-33.6 4.4-4.8 4.6-4.9 6.2-3 .9 1 3.4 5.7 5.6 10.3l3.9 8.5-3.6 1.9c-2 1-6.6 3.8-10.4 6.1-3.7 2.4-7.1 4.3-7.6 4.3s-1.1.4-1.3.8c-.1.5-3.7 3.3-7.8 6.2-19.7 14.1-38.9 32.5-54.5 52-8 10-17.5 23.5-17.5 24.9 0 .6-.4 1.1-1 1.1-.5 0-1 .4-1 .9s-1.8 3.8-3.9 7.3c-9.6 15.9-22 45.2-26.6 62.8-.2.8-1 4-1.8 7-2.2 8-5.3 24.2-6.3 32-2.4 20.1-2.4 60.1 0 71.2.3 1.3.8 4.1 1.1 6.3 1.9 12.1 2.6 15.6 5.5 27 2.5 9.5 9.1 29.8 11.9 36 5.7 13 19 38.6 21.1 40.5.3.3 1.1 1.7 1.9 3.2.8 1.6 1.8 2.8 2.3 2.8.4 0 .8.4.8 1 0 1.3 8.1 12.7 11.8 16.6.7.8 1.1 1.4.8 1.4-.3 0 .2.8 1.2 1.8.9 1 4 4.5 6.7 7.7 5.1 6.1 22.2 23.4 26.6 27 11.3 9.2 13.6 11.1 14.7 12 .7.5 2.1 1.7 3.1 2.5s2.5 1.9 3.3 2.5c.8.5 4.2 2.8 7.4 5 6.8 4.5 9.3 6.1 11.4 7.2.8.4 3 1.7 4.8 2.9 6.2 4.3 39.1 19.8 44.2 20.9.8.2 3.3 1 5.5 1.8 12.3 4.7 31.4 9.5 49 12.3 15.9 2.5 26.9 3.2 47 2.8 23.8-.3 32-.9 41.8-3 1.2-.3 3.5-.5 5-.6 1.5-.1 3-.5 3.3-1 .3-.4.9-.6 1.3-.4.4.3 2.5 0 4.7-.6 2.1-.6 5-1.2 6.4-1.3 5.1-.6 32.6-9.2 39.7-12.5 2.4-1.1 4.5-2 4.8-2 2.5 0 34-16.4 43.5-22.7 1.9-1.3 4.3-2.9 5.4-3.6 4.9-3.2 20.6-15.2 26-19.9 6.2-5.3 25-24 29.6-29.4 9.7-11.3 24.8-32.7 31.4-44.5 11.3-20.5 22.5-47.8 26.2-64.4.4-1.7.9-3.4 1.2-4 .4-.5.7-1.6.8-2.5.1-.8.4-2.9.8-4.5.6-2.6 2.8-14.6 4.1-22.4 2.7-15.7 2.7-60.5-.1-74.6-.3-1.7-.7-4.6-.8-6.5-.2-1.9-.6-4.2-.9-5-.3-.8-.8-3.1-1.1-5-.3-1.9-.9-5.3-1.5-7.4-.5-2.2-.8-4.4-.5-4.8.3-.4.1-.8-.4-.8s-.9-.6-1-1.3c0-.6-.3-1.9-.5-2.7-.2-.8-.7-2.9-1.1-4.5-.7-2.7-2.9-9.8-4.3-13.5-.3-.8-.7-2-.9-2.5-.5-2-5.4-14.5-7.5-19.2-3.4-7.5-8.3-17.7-8.9-18.3-.3-.3-1.6-2.5-2.9-5-5-9.5-6.5-12-7.3-12-.4 0-.8-.6-.8-1.3 0-1.1-3.4-6.3-9-13.7-1-1.4-3.6-4.9-5.8-7.8-9.7-13.1-40.1-44.2-43.1-44.2-.5 0-1.1-.3-1.3-.8-.4-1.1-8.2-7.3-15.8-12.6-6.2-4.3-11.4-7.7-21.9-13.9-5.2-3.1-30.6-15.7-31.6-15.7-.4 0-2.1-.6-3.8-1.4-6.8-3-25.4-9.3-29.2-9.9-1.1-.1-2.4-.5-3-.8-.9-.6-5.6-1.7-10.5-2.5-.8-.2-3.3-.7-5.5-1.3-10.6-2.6-30.5-5.1-44.5-5.6-6.3-.2-11.7-.5-12-.6-.3-.1-.9-.1-1.5 0-.5.2-6.3.4-13 .7-6.6.3-13.3.6-15 .9-1.6.2-5.2.6-8 .9-8.9 1.1-13.5 1.8-19.2 3.1-3 .7-6.1 1.3-9.8 2.1-3.7.7-20.4 5.3-22.5 6.1-.8.4-1.7.7-2 .8-.3 0-1.6.5-2.9.9-2.1.7-4.5-.4-4.6-2.2-.1-.4-.6-2.3-1.2-4.2-.7-1.9-1.4-5.7-1.8-8.4-.5-4.5-12.4-41.7-14.7-45.9-.7-1.5-.5-1.7 1.9-1.5 2.6.2 11.6-.7 17.4-1.7 3.1-.6 19.7-5.3 21.9-6.2.8-.3 1.7-.7 2-.8.3 0 5-1.6 10.5-3.4 8.8-3 23.3-10.9 24.3-13.3.2-.5 1-.8 1.8-.8 2 0 13.8-11.9 21.3-21.4 9.8-12.4 14.4-23.1 15.6-36.1 1.8-21.1 2-23 2.9-24.4.6-.9 8-3.4 13.2-4.5 7.5-1.5 8.7-2.1 10.7-5.2 1.2-1.8 3.9-4.2 5.9-5.3 4.4-2.3 4.9-1.9 7.8 6.5 3.2 9.1 3.1 8.2 4.5 35.9 1.3 26 1.2 25.8 5.4 32 4.3 6.5 8.9 10.2 12.5 10.1 2.9-.1 3.1-.3 2.8-3.6-.1-2-1.8-5.7-3.9-8.8-3.3-4.9-3.6-5.9-3.9-14-.2-4.8-.4-8.7-.5-8.7 0 0-.2-7.5-.4-16.6-.3-14.6-.7-17.6-2.9-24.1-3.3-9.8-3-12.8 2.9-33.8.2-.8 1.8-6 3.6-11.5 3.7-11.7 4.7-18.9 2.9-21-3-3.6-29.6-6.7-35.5-4.1-1.1.5-2.2 1-2.5 1.1-2.7.7-5 1.8-5.1 2.3 0 .4-.2 1.6-.5 2.7-.2 1.1-.6 4.4-.9 7.3-1.1 10.8-6.8 21.2-11.7 21.2-1 0-3.5.9-5.6 1.9-3.9 2-8.5 2.6-33.2 4.6-8.2.7-14 .9-15 .5-4.3-1.5-12.9-2-18-1-2.5.4-6.2 1.1-8.4 1.4-2.1.4-4.2.8-4.6 1.1-.4.2-2.5.7-4.6 1-5.7.8-7.5 1.2-11.1 2.3-1.8.6-3.3.9-3.3.6 0-.9-6.6 2.9-11.8 6.8-2.9 2.2-6.3 4.2-7.5 4.4-1.2.3-3.3.7-4.7 1-1.4.2-8.3 1.6-15.3 3-7.1 1.4-13.8 2.7-15 2.8-1.2.2-3 .7-3.9 1-2.5 1.1-6.1.3-6.3-1.4-.2-.8-1.3-4.9-2.6-9s-2.4-7.8-2.5-8.3c-.1-.4-.2-.8-.4-1-.1-.1-.3-1-.5-2-.6-3.1-3.4-4.4-8.9-3.9-5.7.4-12.4 3.2-16.3 6.8-1.4 1.3-2.9 2.4-3.3 2.4-2.7 0-1.9 3.2 10.9 38.9l4.1 11.4-2.1 6.7c-1.6 5.5-2.3 6.6-4.2 6.6-6.7.1-21.7 1.9-38.7 4.5-3.6.6-7.6 1.2-9 1.4-5 .7-12 1.9-18 2.9-3.9.7-14.2 2.4-18 3-3.6.6-5.1.9-15.5 2.8-3.3.6-6.9 1.2-8 1.4-1.1.1-2 .3-2 .4 0 .2-1 .3-8 1.3-2.2.4-8.7 1.5-14.5 2.6-5.8 1.1-12.3 2.2-14.5 2.6-2.2.3-4.7.8-5.5 1-.8.3-3.1.7-5 1-1.9.2-4.6.7-6 .9-1.4.3-4.1.8-6 1.1-7.3 1.1-18.5 3.2-18.5 3.5 0 .1-1.6.3-3.5.5-5.2.7-9.5 1.3-9.5 1.5 0 .2-3.4.9-7.5 1.4-1.9.3-6.2 1-9.5 1.6-3.3.7-6.9 1.3-8 1.5-1.1.1-4.7.7-8 1.3-3.3.6-7.3 1.4-9 1.7-1.6.2-4.1.7-5.5 1-1.4.3-3.8.7-5.5 1-1.6.2-4.3.7-6 1-1.6.3-4.3.7-6 1-1.6.3-4.1.7-5.5 1-1.4.3-3.8.7-5.5 1-4.1.6-15.1 2.6-16.5 3-.5.1-10.4 1.7-13 2-.8.1-2.6.5-4 .9-1.4.3-4.1.8-6 1-1.9.3-3.5.5-3.5.6 0 .1-1.1.3-2.5.5s-3.5.6-4.6.8c-1.2.3-3.9.8-6 1.1-2.2.4-10 1.7-17.4 3.1-7.4 1.3-15.5 2.7-18 3-2.4.4-4.7.8-5.1 1.1-.3.2-2.6.6-5 .9-2.4.3-5.1.7-5.9 1-1.9.5-9.9 1.7-12.4 1.9-1.8.1-2.2-.6-5.2-10.2-.2-.7-.3-1.3-.3-1.5 0-.1-1-2.9-2.1-6.2-1.1-3.3-2-6-1.9-6 .3 0-1.1-4.7-2-7-1.5-3.6-8.4-27.5-8.4-29 0-.8-.4-1.5-.9-1.5-.4 0-.7-.3-.6-.8.1-.4-.3-2.3-.9-4.2-2.2-6.8-5.4-17.5-5.8-19-.9-4.4-4.1-13.2-6.6-18.5-1.5-3.3-3.6-8.3-4.6-11-1.1-2.8-3.7-7.7-5.9-11s-4.3-6.5-4.6-7c-.4-.7 1.6-1.2 6-1.3 6.9-.2 16.3-1.9 17.2-3.2.5-.7 17.9-9.2 21.5-10.5 1.1-.4 3.1-.8 4.5-1.1 1.4-.2 3.6-.6 5-1 3.2-.9 11.6-.9 15.4 0 1.6.4 3.1.7 3.5.8 2.4.5 4.1-1.7 4.1-5.4 0-5.4-2.3-9.3-7.3-12.6l-4.2-2.7-35-.1c-19.2-.1-38.8-.4-43.5-.7-4.7-.3-13-.6-18.6-.7-5.5-.1-14.7-1-20.5-2-5.7-1-12-2-13.9-2.3-6.9-1-27.5-4.8-29.3-5.3-1-.3-3-.7-4.5-.9-1.5-.2-5.1-.9-8.1-1.4-7-1.4-6.7-1.4-8.5 1zm703.5 74.7c3.3 1.3 17.8 15.6 18.8 18.5.9 2.7.7 13.3-.3 16.7-1.3 3.9-8.3 12.8-16.6 21-14.7 14.4-16 15.3-26.5 19.4-5.5 2.1-10.9 4.2-12 4.6-4.2 1.7-6.2 2.1-12 2.6-8.1.7-22 3.2-25 4.6-2.3 1-2.9 2.7-2.8 6.7.2 3.2-1.7-1.2-5.1-11.4-1.9-6.1-6.5-19.6-10.1-30.2-3.6-10.6-6.5-19.7-6.5-20.3 0-1.3-5.9-6.8-8.1-7.5-1.3-.5-3.5-4.5-2.4-4.5.1 0 4-.9 8.6-2.1 4.6-1.2 9.8-2.3 11.4-2.6 1.7-.2 4.7-.9 6.7-1.4 9.1-2.4 19.5-3 20.6-1.3 2.1 3.2 15.5 4.4 21.6 2 4-1.6 9.3-8 10.6-13.1.5-1.5 1.5-2 4.3-2.1 2.1-.1 4-.4 4.2-.6.9-.9 18.1-.1 20.6 1zm-168.6 79.7c7.4.7 10.2 1.1 14.8 2 1.5.3 3.8.7 5.1.9 1.2.2 5 1.2 8.2 2.1 5.5 1.5 6.1 2 8.1 6.3 4.1 8.7 7.4 20.2 7 24-.5 3.7-1.6 7.3-2.6 8.2-.3.3-1.5 2.1-2.5 4-1.1 1.9-3.4 5.1-5.2 7-1.8 1.9-4.1 4.5-5.2 5.8-4 4.6-14.8 16.7-17.5 19.6-1.5 1.6-4.6 5.1-6.8 7.7-2.2 2.6-5.4 6.3-7.2 8.2-1.8 1.9-5.7 6.2-8.7 9.6-7.5 8.5-9.4 10.6-17.5 19.6-3.8 4.3-8.8 9.9-11 12.4-2.2 2.5-6.4 7.2-9.4 10.5-3 3.4-6.8 7.7-8.5 9.6-6 6.9-19.1 21.6-23.2 26-2.3 2.5-5.7 6.3-7.5 8.5-1.9 2.2-3.7 4.2-4 4.5-.3.3-4.3 4.8-8.9 10-4.7 5.2-8.9 10-9.5 10.6-.5.6-3.3 3.7-6.2 7-2.8 3.2-6.2 7.1-7.5 8.5-3.7 4.2-8.7 9.7-18.2 20.4-4.9 5.5-9.2 10.2-9.5 10.5-.3.3-2.1 2.3-4 4.5s-6.6 7.6-10.5 11.9c-3.9 4.4-8.1 9.1-9.3 10.5-6.8 7.7-20.1 22.7-22.8 25.5-1.1 1.2-4.9 5.5-8.5 9.6-3.6 4.1-8.3 9.4-10.5 11.8-2.2 2.4-4.4 5-4.8 5.8-.9 1.6-5.3 1.9-6.2.4-1.4-2.2-17.8-8.3-25.6-9.5-2.4-.3-5.3-.8-6.4-1-1.1-.2-4.5-.4-7.6-.4-6.3-.1-6.1.1-9.3-10.6-.8-2.8-3.5-11.8-6.1-20-2.5-8.3-4.8-15.8-5-16.8-.2-.9-.7-2.2-1-2.7-.3-.5-.8-1.9-1-2.9-.3-1.9-6.6-22.6-8.5-28.1-2-6-7.5-23.6-7.5-24.5-.1-.6-1.4-5.1-3-10-1.6-5-2.9-9.2-3-9.5-.1-.8-3.5-11.7-5.7-18.5-1.1-3.3-2.2-6.8-2.3-7.8-.2-.9-.7-2.2-1-2.7-.3-.5-.8-1.8-1-2.7-.1-1-2.7-9.5-5.5-18.8-2.9-9.4-5.5-18.1-5.8-19.5-.2-1.4-.8-3-1.2-3.5-.4-.6-1.1-2.6-1.5-4.5-.4-1.9-1-4-1.3-4.5-.4-.6-.7-1.5-.8-2-.1-.6-1.2-4.4-2.5-8.5s-2.4-7.8-2.5-8.3c-.1-.4-.3-.9-.4-1.2-.1-.3-.3-.8-.4-1.3-.8-2.8-3.8-13-4.3-14.2-.3-.8-.7-2-.9-2.5-.1-.6-1.2-3.9-2.4-7.5-1.1-3.6-2.3-7.9-2.6-9.5-.3-1.7-1-3.5-1.5-4.1-1.4-1.7 2.6-6.1 7.4-8.3 4.8-2.2 10.5-3.8 16.2-4.6 2.2-.3 6-1 8.5-1.5s5.9-1.2 7.5-1.4c1.7-.2 3-.5 3-.6 0-.1.9-.3 2-.4 3.8-.6 10-1.7 11.5-2.1.8-.2 3.1-.6 5-.9 1.9-.3 4.6-.8 6-1.1 1.4-.3 4.1-.8 6-1.1 1.9-.3 5.3-.9 7.5-1.4 2.2-.5 5.6-1.1 7.5-1.5 1.9-.3 4.6-.7 6-1 1.4-.3 3.9-.7 5.5-1 2.9-.5 5.5-1 10.5-2 1.4-.3 4.1-.7 6-.9 1.9-.3 4.6-.7 6-1 1.4-.3 5-1 8-1.6 3-.6 6.5-1.2 7.6-1.4 1.2-.2 3.8-.7 5.8-1 1.9-.3 7.3-1.2 11.8-2.1 11.8-2.1 25.9-4.5 28.8-5 1.4-.2 6.3-1.1 11-1.9 4.7-.8 10.1-1.7 12-2.1 1.9-.3 4.6-.7 6-1 1.4-.3 4.1-.7 6-1 4.3-.7 7.8-1.3 11-2 1.4-.3 4.5-.8 7-1.1 5.9-.8 6.7-.9 12-1.8 2.5-.4 5.6-.9 7-1.2 1.4-.2 3.4-.6 4.5-.8 2.1-.4 16-2.6 20.4-3.1 1.4-.2 4-.6 5.6-.9 4.7-.7 10.7-1.6 14-2.1 2.8-.3 7.2-1 13.7-2.1 1.5-.2 4.9-.6 7.5-.9 2.6-.3 5.8-.7 7.1-.9 1.3-.3 5.3-.8 9-1.2 3.7-.3 6.8-.7 6.9-.8.3-.2 2.6-.1 12.8.9zm-568 137.9c4.4.4 9.1.8 10.5 1.1 1.4.3 4.1.7 6 1 4.6.6 15 2.9 22.5 5 3.3.9 6.5 1.8 7 1.9 3.4.9 21.1 8 27.5 11.1 6.1 2.9 25.2 13.8 27.5 15.7.5.4 3.3 2.5 6 4.5 5.4 4.1 5.6 4.2 10 7.8l3 2.5-26.5 26c-14.6 14.4-41 40.4-58.6 57.8-17.7 17.4-33 32.5-34 33.4-1.8 1.6-2.4 1.6-9.2-.2-7.9-2.1-21.3-2.1-26.7 0-1.6.6-3.1 1.1-3.3 1-.9-.5-11.3 5.5-15.3 8.7-7 5.8-16.9 19.9-15.2 21.7.4.3.2.6-.4.6-.6 0-1.4 1.7-1.8 3.7-.4 2.1-1 4.9-1.3 6.3-1.3 6.1-.2 21.3 1.9 25.2.5 1 .7 1.8.4 1.8-.3 0 1 3.1 3 6.9 4.5 8.6 12.6 16.9 20.7 21.5 6.4 3.5 17.3 7 18.9 6 .5-.3.9-.1.9.4s1.3.7 3 .4c2.9-.4 3-.3 2.6 3.6-.7 8.6 5.5 15.8 14.8 17.1l3.9.6-12.2 12.5c-6.6 6.9-13.1 14.5-14.3 16.9-6.2 12.7 1.4 29.4 15.2 33.1 2.1.6 16.4 1.2 31.7 1.5 15.3.2 44.9.7 65.8 1.1 20.9.3 43.1.7 49.3.7 6.1.1 11.2.5 11.2.9 0 1.2-20.8 21.9-27.5 27.4-3.3 2.7-6.8 5.7-7.9 6.6-1.1 1-2.3 1.8-2.7 1.8-.4 0-1.4.6-2.1 1.3-4.3 4.1-28.8 17.9-41.3 23.2-13.9 5.9-35.8 11.8-51.5 14-16.5 2.3-46.5 2.4-57.5.1-1.1-.2-4-.7-6.5-1-12.2-1.6-35-8-46-12.8-15.3-6.8-37-18.7-37.8-20.9-.2-.5-.9-.9-1.6-.9-.7 0-2.1-.8-3.2-1.8-1-.9-4.4-3.6-7.4-5.9-14.4-11-26.2-23-38.3-38.8-4.3-5.5-8.1-10.5-8.7-11.1-1.9-2.5-13.1-22.5-15.9-28.5-5.9-12.8-12.1-29.8-13.6-36.9-.2-.8-.8-3.3-1.4-5.5-.5-2.2-1.3-5.5-1.6-7.4-.3-1.9-.7-3.7-.9-4-.2-.3-.7-3.1-1-6.1-.4-3-.9-7.1-1.2-9-.2-1.9-.7-7.7-.9-12.8-.2-5-.6-9.6-1-10.1-.3-.5-.1-1.2.4-1.5.5-.3.6-2.1.1-4-.4-1.9-.6-3.7-.4-3.9.2-.2.6-3.9.9-8.2.2-4.4 1-11.5 1.6-16 .7-4.4 1.3-8.9 1.4-10 .1-1.1.5-2.7.7-3.5.3-.8 1.3-4.9 2.3-9 2.1-9 5.9-21.4 8.2-26.7.9-2.1 1.7-4.3 1.9-4.8.2-1.4 8.8-18.9 12.2-25.1 2.7-5 14.9-23.4 16.1-24.4.3-.3 2.4-2.8 4.6-5.5 14.1-17.6 35.4-36.1 56-48.7 6.7-4 21.4-11.5 23.6-12 .8-.2 1.6-.5 1.9-.8 1.3-1.3 5.2-3 6.8-3 1 0 2.2-.4 2.8-.8 1.4-1.3 17.8-6.4 24.7-7.8 1-.2 2.8-.6 4-1 1.2-.4 3.3-.8 4.7-1 1.4-.1 2.5-.3 2.5-.4 0-.1 3.5-.7 8.5-1.4 1.4-.2 6.8-.7 12-1.1 5.2-.4 9.6-.8 9.7-.9.4-.3 17.5.2 25.8.8zm805.5 0c3 .4 6.6.9 8 1.2 1.4.2 4.3.7 6.5 1 2.2.3 6.7 1.2 10 2s7.1 1.7 8.5 2c3.5.7 9.2 2.5 11.2 3.5 1 .5 2.5.9 3.4.9.8 0 2.5.5 3.7 1.2 1.2.7 2.8 1.3 3.6 1.4 3.8.7 33.1 14.8 34.2 16.6.3.5 1.2 1 2 1.1 1.6.3 11.7 7 20.9 14 8.9 6.8 8 5.9 22.5 20.3 18.4 18.2 32 37 42.8 59.2 2.5 5.1 4.7 9.6 4.8 10 .2 1 1.4 4.1 3.2 8.5.9 2 1.7 4.1 1.8 4.5.1.4.5 1.7 1 3 .5 1.2 1.1 3.3 1.3 4.5.3 1.2 1 3.8 1.6 5.7 1.1 3.6 1.7 5.8 2.4 9.8.3 1.2.7 3 1 4 .3.9.8 3.3 1 5.2.3 1.9.8 4.6 1.1 6 2.7 12.2 2.7 49.7 0 66.5-1.1 6.7-1.5 9.1-2.1 11.5-.3 1.4-.7 3.6-1 5-.8 4.4-4.5 16.2-8.2 26.5-3.4 9.4-14.7 33.1-17.5 36.4-.7.9-1.8 2.7-2.5 4.1-1.9 3.7-14.9 21-21.2 28-5.4 6.2-14.7 15.3-20.5 20.3-1.6 1.5-3.7 3.3-4.5 4.1-3.1 2.9-11.8 9.1-21.6 15.5-21 13.7-47.8 25.1-71 30.2-3.2.7-6.1 1.3-6.4 1.4-1.4.3-8.9 1.6-12 2-18.7 2.7-54 2.7-65.5.2-1.1-.2-4.1-.7-6.6-1.1-7.4-1.1-10-1.6-17.9-3.7-13.3-3.5-26.9-8.3-36.8-13-3.5-1.6-6.5-2.9-6.8-2.9-.3 0-5.4-2.8-11.2-6.1-20.1-11.6-32.9-21.4-49.2-37.8-6.3-6.4-12.6-13.2-14-15-1.4-1.9-3.3-4.3-4.4-5.5-1.8-2-13.9-20-16.3-24.1-6.7-11.7-19.3-40.9-19.3-44.8 0-.7-.3-1.7-.7-2.1-.4-.3-.8-1.3-.9-2.1-.1-.8-.9-4.2-1.8-7.7-1.7-6.9-2.6-11.1-3.1-14.5-.2-1.3-.6-4-.9-6-1.5-9.5-1.8-13.8-2-28.3-.8-50.1 14-95.5 44.3-135.5 13-17.2 34.5-37.5 51.6-48.8l8.1-5.4c.5-.4 2-1.4 3.2-2.1 1.2-.6 3.1-1.7 4.2-2.4 1-.7 2.1-1 2.3-.8.4.5 38 76.1 82.9 166.8 17.8 35.9 18 36.4 22.1 38.2 3.2 1.4 4.6 1.6 6.1.8 1.2-.6 2.2-1.1 2.4-1 .9.6 2-.2 3.9-3.1 1.6-2.3 2.1-4.1 1.7-6.2-.4-2.3-5.1-14.9-11.9-32-.5-1.1-.7-2.3-.7-2.8.1-.4-.2-.7-.7-.7-.5 0-1.3-1.5-1.6-3.3-.4-1.7-1-3.7-1.4-4.2-.4-.6-2.4-5.5-4.5-11-5.4-14-5.1-13.4-8-19.8-1.4-3.2-2.6-6.1-2.6-6.6 0-.4-2.2-6.2-4.8-12.7-2.7-6.6-6.8-16.9-9.1-22.9-2.4-6.1-4.9-12.4-5.6-14-.7-1.7-5.9-14.7-11.5-29s-10.8-27.4-11.5-29c-.7-1.7-2.5-6.2-3.9-10-1.5-3.9-3-7.9-3.5-9-2.3-5.1-2.2-5.2 4.2-7.1 3.4-.9 6.7-1.8 7.2-2 .6-.1 3-.7 5.5-1.4 4.4-1.2 5.8-1.5 11-2.5 1.4-.3 3.6-.7 5-1 3.2-.6 8.1-1.3 15.5-2.1 3.3-.3 6.1-.7 6.3-.8.5-.6 38.1.2 43.2.8zm-604.5 13.8c1.6 5.1 2.9 9.5 3 9.8.2 1.2 12.7 38.7 13.4 40.5.5 1.1 1.9 5.4 3.1 9.5 1.2 4.1 2.8 8.8 3.5 10.5.7 1.6 1.6 4.6 2 6.5.4 1.9 1 3.9 1.4 4.5.3.5.6 1.2.6 1.5.1.9 22.6 69.4 23.4 71.5 1.2 2.9 8.1 24.5 8.1 25.3 0 .6-6.3.8-9.1.3-.3-.1-.5-1.1-.5-2.4 0-3.8-1.5-16-2.5-19.7-.5-2-1.1-5.3-1.3-7.4-.3-2.1-.8-4.7-1.2-5.8-.3-1.1-.7-3-.9-4.1-.2-1.2-1.3-5.6-2.4-9.7-1.2-4.1-2.3-8.2-2.5-9-1-3.7-8.2-23-11-29-1.1-2.5-2-4.7-2.1-5-.1-.7-6.1-12.3-9.8-19-3.1-5.7-16.1-25.7-19.3-29.9-8-10-17-20.7-18-21.3-.6-.4-1.9-1.9-2.8-3.3-1.6-2.5-1.6-2.5 4.5-8.3 14.5-13.5 16.4-15.2 16.9-15.2.3 0 1.9 4.2 3.5 9.2zm-52.9 66c2.7 3.4 5.6 7 6.4 8 6.2 7 20.9 34.1 26.5 48.8 1.8 4.7 3.6 9.4 4 10.5.4 1.1 1 2.9 1.2 4 .2 1.1.7 3.1 1.3 4.5 1.2 3.3 4.1 14.7 4.7 18.5.2 1.6.8 5.2 1.3 8 .5 2.7 1 6.3 1.2 8l.3 3h-28.7c-15.9 0-28.8-.2-28.8-.5s-17.6-.5-39.1-.5-39.3-.3-39.6-.8c-.2-.4-.9-.4-1.5-.1-.6.4-4.7.6-9.2.4-4.4-.1-12.1-.3-16.9-.3-7.7-.2-9-.5-9.9-2.2-.7-1.1-2.9-3.8-5-6s-3.8-4.3-3.8-4.6c0-.4 2.5-3.1 5.7-6 3.1-3 7.3-7 9.3-8.9 2-1.9 9.4-8.9 16.5-15.5 17-15.9 26.7-25 32.4-30.5 2.6-2.5 9.8-9.2 16.1-15 6.2-5.8 14.2-13.3 17.7-16.8 3.5-3.4 6.5-6.2 6.6-6.2.1 0 4-3.6 8.7-8l8.4-7.9 4.7 4.9c2.6 2.7 6.9 7.7 9.5 11.2zM336.5 775.9c3.3 0 6.7.1 7.5 0 .8 0 19.5.3 41.5.6s52.8.7 68.5 1c15.7.2 29 .4 29.6.4 1.8.1.7 43.2-1.1 45-.3.2-5.1-.4-10.7-1.4-5.7-.9-11.2-1.9-12.3-2-1.1-.2-3.3-.6-5-1-1.6-.3-4.6-.8-6.5-1-1.9-.3-5.5-.9-8-1.5-2.5-.5-5.8-1.2-7.5-1.4-1.6-.2-3-.5-3-.6 0-.1-1.6-.3-3.6-.5-2-.1-4.5-.5-5.5-.9-1-.3-3.5-.8-5.4-1.1-9.8-1.6-17.4-2.9-21.9-3.9-1.2-.3-4.3-.8-6.8-1.1-2.4-.2-4.8-.7-5.1-.9-.4-.2-2.8-.7-5.2-1.1-5.2-.7-8.5-1.3-12-2-1.4-.3-4.1-.7-6-1-1.9-.3-4.6-.7-6-1-3-.7-12.3-2.4-16.5-3.1-1.6-.2-3.9-.6-5-.8-1.1-.3-4.1-.8-6.8-1.2-3.7-.5-4.8-1.1-5.3-2.8-.3-1.2-.4-2.6-.3-3.2.1-.5.1-1.1 0-1.4-.1-.3-.4-2.5-.7-4.9-.2-2.4-.9-5-1.5-5.7-1.4-1.7-.2-1.9 7.8-1.7 3.8.1 9.5.2 12.8.2zm216 5c.3 1.3.5 2.4.3 2.5-.2.1-3.1 1.9-6.5 3.9-3.3 2-6.3 3.7-6.5 3.7-.1 0-.3-2.8-.3-6.3v-6.4l6.2.1c5.7.1 6.3.3 6.8 2.5zM323 816.4c2.3.4 9.1 1.8 14.8 3 1.3.3 3.3.8 4.5 1.2 1.2.4 3.1.8 4.2.9 1.1.1 3.1.5 4.3.9 1.3.4 3.4.9 4.5 1.1 1.2.1 4.5.8 7.2 1.5 2.8.6 5.9 1.3 7 1.6 1.1.2 6.8 1.4 12.5 2.8 10 2.2 40.2 9.2 44.5 10.2 1.1.3 3.1.7 4.5 1 1.4.3 3.4.8 4.5 1.1 1.1.4 2.5.8 3 .9 4.1.9 6.3 1.4 8 1.8 1.1.2 8.1 1.9 15.5 3.6 7.4 1.7 13.7 3.3 14.2 3.6.6.4-1.2 6.7-5 17.4-.3.8-.4 1.8-.4 2.2.1.5-.3.8-.8.8s-.9.3-.8.7c.6 3-17.7 39.1-20.3 40.1-.5.2-.9.8-.9 1.4 0 .6-1.1 2.4-2.5 4.2-1.4 1.7-2.9 3.6-3.4 4.2-.5.6-6.5.9-16.7.8-43.9-.7-125.9-2.1-131.3-2.3l-2.4-.1 2-2.3c3.4-3.6 4.6-6.8 4.6-11.9 0-8.5-6-15-15.4-16.6l-3.9-.7 10.6-11c13.2-13.6 15.1-16.1 16.7-21.6 2.1-6.9.8-14.2-3.8-20.4l-2.2-3 3.4-3.5c1.8-1.9 4.3-5.1 5.5-7 1.2-1.9 2.6-3.8 3.1-4.1.5-.3.9-1 .9-1.5.1-2.7 1.1-3.2 4.1-2.3 1.8.4 4.3 1 5.7 1.3zM525.1 899c7.5 10 24.4 22.8 32.6 24.5.6.2 1.9.7 2.8 1.2 1.1.6-2.1.9-9.2.7-5.9-.1-18.5-.3-28-.4l-17.1-.3 1.1-2.6c.6-1.4 1.4-2.8 1.8-3.1.6-.6 2.1-3.9 2.5-5.8.1-.7.8-2 1.6-2.9.7-.9 1.7-2.8 2.3-4.2 5.5-14.6 4.6-13.9 9.6-7.1z"/></svg>