<svg version="1" xmlns="http://www.w3.org/2000/svg" width="976" height="976" viewBox="0 0 732.000000 732.000000"><path d="M199 .3c-.3.3-1.8.7-3.5 1-1.6.3-7.3 1.5-12.5 2.8-5.2 1.3-9.8 2.3-10.2 2.3-.3.1-1 .4-1.4.8-.4.5-1.3.8-2 .8s-2.5.5-4.1 1.2c-1.5.6-3.2 1.2-3.8 1.3-2 .5-14.9 6.9-22.6 11.2-14.8 8.3-26.5 17.9-35.9 29.6-6.7 8.3-6.3 7.7-8.6 11.7-1 1.9-2.3 3.8-2.7 4.1-.5.3-.9 1-.9 1.5s-.5 2-1.1 3.4c-.5 1.4-1.1 3-1.2 3.6-.2.7-1.7 4.1-3.4 7.7-1.7 3.6-3.1 7-3.1 7.6 0 .6-.4 1.1-1 1.1-.5 0-.9.3-.8.7.1.5-.6 2.6-1.6 4.8-.9 2.2-2.9 8.5-4.4 14-2.5 9.8-2.6 10.6-2.8 47.5l-.2 37.5 3.8 15c9.9 38.8 24.3 72.3 43.4 101.6 20.3 30.8 47.3 62.2 67.6 78.4 4.1 3.3 7.7 6.2 8 6.6.3.3 4.1 3 8.5 6s8.3 5.8 8.7 6.4c.4.5.8.6.8.1s.8-.2 1.8.6c2.6 2.4 29.6 16.8 31.4 16.8.3 0 3.7 1.4 7.5 3.1 10.3 4.6 10.5 4.7 14.8 6.5 14.4 5.9 20.5 7.3 31.8 7.4 6.2 0 13.5.3 16.2.5 2.8.2 8.4.6 12.5 1 4.1.3 8.6.7 10 .9 1.4.2 4.8.7 7.5 1.1 23.8 3.2 40.1 9.8 60.5 24.2 8.1 5.8 23.2 21.1 29 29.3 1.3 1.9 2.7 3.7 3 4 .8.8 5 6.9 5 7.4 0 .2 1.7 3.3 3.8 6.7 7.3 12.2 34.9 65.6 40.1 77.9 1.3 3 3.6 8.2 5.1 11.5 1.4 3.3 2.8 6.4 3 7 .4 1.2 2.7 6.9 4.6 11.2 3.5 8.2 4.5 10.4 8.8 19.6 2.5 5.5 4.6 10.3 4.6 10.8s.5.9 1 .9c.6 0 .9.3.8.7-.1.5 1.7 4.8 4.1 9.8 2.3 4.9 5.1 11.1 6.2 13.7 1 2.6 2.3 5.5 2.8 6.5.6 1 4.7 9.4 9.2 18.8 4.5 9.3 8.5 17.2 8.8 17.5.4.3 1.5 1.8 2.4 3.3l1.8 2.9 12.7-.5c12.8-.4 14.3-.6 19.7-2.7 1.7-.6 3-1 3-.9 0 .5 37.1-11.4 51.4-16.6 8.1-2.9 10.1-4.5 17-13.8l6.9-9.2v-6.9c.1-6.8 0-7.1-4.8-13.6-2.8-3.7-5-7.1-5-7.6 0-.4-.8-1.7-1.8-2.8-2.6-2.9-50.7-74.4-62.4-92.6-5.7-8.9-13.8-23-13.8-23.9 0-.5-.3-1.1-.7-1.3-.5-.2-1.6-1.9-2.7-3.8-1-1.9-5.2-9.5-9.2-16.8-4.1-7.3-7.4-13.7-7.4-14.2 0-.6-.3-1-.7-1-.5 0-1.3-1-1.8-2.3-1-2-7.1-13.5-14.6-27.2-1.5-2.8-4.3-7.9-6.2-11.5l-3.4-6.5.1-15 .1-15 3.5-5c3.2-4.7 8.8-11.8 13.7-17.5 1.2-1.4 3.1-3.6 4.3-5 1.1-1.3 7.6-8.2 14.3-15.3 6.7-7.1 13.3-14.5 14.7-16.5 1.4-2 3.3-4.5 4.2-5.6 1-1 4.2-6.9 7.2-13 5.2-10.6 8.9-21.8 10.4-31.6.8-5.4.7-27-.1-32.1-1.3-8.4-6.4-25.4-10.4-34.9-2.7-6.3-16.7-34.4-18.8-37.7-1.1-1.7-3.1-5.1-4.5-7.4-2.6-4.4-15.9-24.9-18.4-28.4-.8-1.1-3.3-4.5-5.6-7.5-2.2-3-4.8-6.6-5.8-7.9-3.2-4.5-14.4-18.6-15.1-19.1-.4-.3-1.4-1.6-2.3-2.9-5.7-8.2-30.5-33.2-46.8-47.1-1.4-1.2-3.9-3.4-5.5-4.8-1.7-1.5-5.3-4.5-8-6.7-2.8-2.1-5.2-4.2-5.5-4.5-2.6-2.7-19.8-15.7-30.2-22.6-4-2.7-7.5-5.2-7.8-5.5-.3-.3-3.4-2.1-7-4s-6.6-3.7-6.8-4.2c-.2-.4-.8-.7-1.2-.7-.5 0-6.5-2.7-13.4-6s-12.8-6-13.1-6c-.2 0-3.3-1.3-6.7-2.9-3.5-1.5-7.4-3.2-8.8-3.6-1.4-.4-3.8-1.3-5.5-2-3.1-1.4-27.8-9.5-30.5-10-.8-.2-4.2-1-7.5-1.9-3.3-.8-7.3-1.7-9-2-1.6-.3-6.1-1.3-10-2.3-5.9-1.4-14.2-1.7-51-2-24.2-.2-44.3-.2-44.5 0z"/></svg>